subject10_loaded_free_trial03_ground_reaction
version=1
nRows=33
nColumns=19
inDegrees=no
endheader
time	ground_force_r_vx	ground_force_r_vy	ground_force_r_vz	ground_force_r_px	ground_force_r_py	ground_force_r_pz	ground_torque_r_x	ground_torque_r_y	ground_torque_r_z	ground_force_l_vx	ground_force_l_vy	ground_force_l_vz	ground_force_l_px	ground_force_l_py	ground_force_l_pz	ground_torque_l_x	ground_torque_l_y	ground_torque_l_z
1.739000	0.000000	0.000000	0.000000	-3.116700	0.000000	1.186239	0.000000	0.000000	0.000000	-29.524550	745.244902	14.855675	1.660359	0.000000	-0.225958	0.000000	-0.340919	0.000000
1.739500	0.000000	0.000000	0.000000	-3.162045	0.000000	1.196423	0.000000	0.000000	0.000000	-29.325658	744.673189	14.786838	1.660621	0.000000	-0.225954	0.000000	-0.342012	0.000000
1.740000	0.000000	0.000000	0.000000	-3.207717	0.000000	1.206655	0.000000	0.000000	0.000000	-29.127100	744.112790	14.718164	1.660882	0.000000	-0.225949	0.000000	-0.343091	0.000000
1.740500	0.000000	0.000000	0.000000	-3.253719	0.000000	1.216935	0.000000	0.000000	0.000000	-28.928856	743.563684	14.649674	1.661143	0.000000	-0.225945	0.000000	-0.344155	0.000000
1.741000	0.000000	0.000000	0.000000	-3.300051	0.000000	1.227262	0.000000	0.000000	0.000000	-28.730907	743.025851	14.581386	1.661403	0.000000	-0.225941	0.000000	-0.345202	0.000000
1.741500	0.000000	0.000000	0.000000	-3.346715	0.000000	1.237637	0.000000	0.000000	0.000000	-28.533233	742.499270	14.513321	1.661662	0.000000	-0.225936	0.000000	-0.346230	0.000000
1.742000	0.000000	0.000000	0.000000	-3.393711	0.000000	1.248060	0.000000	0.000000	0.000000	-28.335814	741.983921	14.445497	1.661921	0.000000	-0.225932	0.000000	-0.347238	0.000000
1.742500	0.000000	0.000000	0.000000	-3.441042	0.000000	1.258531	0.000000	0.000000	0.000000	-28.138628	741.479782	14.377932	1.662179	0.000000	-0.225928	0.000000	-0.348222	0.000000
1.743000	0.000000	0.000000	0.000000	-3.488707	0.000000	1.269050	0.000000	0.000000	0.000000	-27.941653	740.986834	14.310645	1.662437	0.000000	-0.225924	0.000000	-0.349179	0.000000
1.743500	0.000000	0.000000	0.000000	-3.536709	0.000000	1.279617	0.000000	0.000000	0.000000	-27.744865	740.505055	14.243655	1.662693	0.000000	-0.225920	0.000000	-0.350102	0.000000
1.744000	0.000000	0.000000	0.000000	-3.585048	0.000000	1.290233	0.000000	0.000000	0.000000	-27.548239	740.034427	14.176977	1.662949	0.000000	-0.225916	0.000000	-0.350988	0.000000
1.744500	0.000000	0.000000	0.000000	-3.633727	0.000000	1.300897	0.000000	0.000000	0.000000	-27.351753	739.574935	14.110628	1.663205	0.000000	-0.225912	0.000000	-0.351832	0.000000
1.745000	0.000000	0.000000	0.000000	-3.682745	0.000000	1.311609	0.000000	0.000000	0.000000	-27.155382	739.126569	14.044622	1.663459	0.000000	-0.225908	0.000000	-0.352631	0.000000
1.745500	0.000000	0.000000	0.000000	-3.732104	0.000000	1.322370	0.000000	0.000000	0.000000	-26.959104	738.689320	13.978974	1.663713	0.000000	-0.225904	0.000000	-0.353379	0.000000
1.746000	0.000000	0.000000	0.000000	-3.781805	0.000000	1.333179	0.000000	0.000000	0.000000	-26.762899	738.263177	13.913697	1.663966	0.000000	-0.225901	0.000000	-0.354072	0.000000
1.746500	0.000000	0.000000	0.000000	-3.831850	0.000000	1.344037	0.000000	0.000000	0.000000	-26.566744	737.848128	13.848807	1.664219	0.000000	-0.225897	0.000000	-0.354705	0.000000
1.747000	0.000000	0.000000	0.000000	-3.882240	0.000000	1.354944	0.000000	0.000000	0.000000	-26.370618	737.444161	13.784317	1.664470	0.000000	-0.225893	0.000000	-0.355273	0.000000
1.747500	0.000000	0.000000	0.000000	-3.932975	0.000000	1.365900	0.000000	0.000000	0.000000	-26.174498	737.051262	13.720241	1.664721	0.000000	-0.225890	0.000000	-0.355771	0.000000
1.748000	0.000000	0.000000	0.000000	-3.984058	0.000000	1.376905	0.000000	0.000000	0.000000	-25.978361	736.669414	13.656594	1.664971	0.000000	-0.225886	0.000000	-0.356194	0.000000
1.748500	0.000000	0.000000	0.000000	-4.035488	0.000000	1.387959	0.000000	0.000000	0.000000	-25.782183	736.298592	13.593391	1.665221	0.000000	-0.225883	0.000000	-0.356537	0.000000
1.749000	0.000000	0.000000	0.000000	-4.087268	0.000000	1.399062	0.000000	0.000000	0.000000	-25.585941	735.938770	13.530647	1.665469	0.000000	-0.225879	0.000000	-0.356792	0.000000
1.749500	0.000000	0.000000	0.000000	-4.139399	0.000000	1.410214	0.000000	0.000000	0.000000	-25.389610	735.589918	13.468375	1.665717	0.000000	-0.225876	0.000000	-0.356955	0.000000
1.750000	0.000000	0.000000	0.000000	-4.191882	0.000000	1.421415	0.000000	0.000000	0.000000	-25.193168	735.252005	13.406587	1.665964	0.000000	-0.225872	0.000000	-0.357022	0.000000
1.750500	0.000000	0.000000	0.000000	-4.244717	0.000000	1.432666	0.000000	0.000000	0.000000	-24.996592	734.925004	13.345295	1.666210	0.000000	-0.225869	0.000000	-0.356988	0.000000
1.751000	0.000000	0.000000	0.000000	-4.297907	0.000000	1.443967	0.000000	0.000000	0.000000	-24.799863	734.608892	13.284509	1.666455	0.000000	-0.225866	0.000000	-0.356851	0.000000
1.751500	0.000000	0.000000	0.000000	-4.351452	0.000000	1.455317	0.000000	0.000000	0.000000	-24.602959	734.303647	13.224236	1.666699	0.000000	-0.225863	0.000000	-0.356611	0.000000
1.752000	0.000000	0.000000	0.000000	-4.405354	0.000000	1.466717	0.000000	0.000000	0.000000	-24.405862	734.009248	13.164484	1.666942	0.000000	-0.225860	0.000000	-0.356264	0.000000
1.752500	0.000000	0.000000	0.000000	-4.459613	0.000000	1.478166	0.000000	0.000000	0.000000	-24.208550	733.725681	13.105260	1.667185	0.000000	-0.225857	0.000000	-0.355811	0.000000
1.753000	0.000000	0.000000	0.000000	-4.514232	0.000000	1.489665	0.000000	0.000000	0.000000	-24.011004	733.452931	13.046571	1.667427	0.000000	-0.225854	0.000000	-0.355249	0.000000
1.753500	0.000000	0.000000	0.000000	-4.569210	0.000000	1.501215	0.000000	0.000000	0.000000	-23.813200	733.190989	12.988425	1.667667	0.000000	-0.225851	0.000000	-0.354575	0.000000
1.754000	0.000000	0.000000	0.000000	-4.624550	0.000000	1.512814	0.000000	0.000000	0.000000	-23.615116	732.939843	12.930830	1.667907	0.000000	-0.225849	0.000000	-0.353787	0.000000
1.754500	0.000000	0.000000	0.000000	-4.680252	0.000000	1.524464	0.000000	0.000000	0.000000	-23.416729	732.699484	12.873794	1.668146	0.000000	-0.225846	0.000000	-0.352881	0.000000
1.755000	0.000000	0.000000	0.000000	-4.736319	0.000000	1.536164	0.000000	0.000000	0.000000	-23.218014	732.469899	12.817326	1.668384	0.000000	-0.225844	0.000000	-0.351855	0.000000
